<svg id="svg" version="1.1" width="161" height="200" xmlns="http://www.w3.org/2000/svg"><path d="M55.773 4.738 C 54.134 5.427,52.39 5.741,51.897 5.436 C 51.404 5.131,51.0 5.246,51.0 5.691 C 51.0 6.136,48.3 7.363,45.0 8.418 C 41.7 9.472,39.0 10.747,39.0 11.251 C 39.0 11.754,38.453 11.984,37.785 11.762 C 37.117 11.539,35.527 12.597,34.253 14.112 C 32.978 15.627,30.363 17.385,28.443 18.019 C 26.523 18.653,25.016 19.695,25.094 20.336 C 25.45 23.237,24.903 24.208,23.167 23.754 C 21.975 23.442,20.538 24.274,19.06 26.13 C 17.809 27.701,16.315 28.695,15.739 28.338 C 15.128 27.961,14.988 28.172,15.405 28.845 C 15.8 29.485,15.556 30.0,14.859 30.0 C 13.918 30.0,13.888 30.288,14.737 31.137 C 15.587 31.987,14.988 32.876,12.369 34.654 C 10.44 35.962,8.443 36.774,7.931 36.458 C 7.419 36.141,7.0 36.332,7.0 36.882 C 7.0 37.432,7.457 38.165,8.016 38.51 C 8.575 38.856,8.743 39.607,8.388 40.181 C 8.034 40.754,8.364 41.623,9.122 42.112 C 10.278 42.857,10.258 43.159,9.0 43.985 C 7.735 44.815,7.794 44.972,9.372 44.985 C 10.832 44.997,10.997 45.298,10.122 46.352 C 8.417 48.408,8.735 52.0,10.622 52.0 C 11.846 52.0,11.978 52.322,11.159 53.309 C 10.347 54.287,10.578 55.05,12.074 56.331 C 13.512 57.562,13.819 58.501,13.166 59.668 C 12.59 60.697,12.755 63.159,13.617 66.395 C 14.365 69.203,14.982 72.711,14.988 74.191 C 15.013 79.901,16.761 77.615,17.253 71.227 C 17.863 63.327,20.551 53.245,22.866 50.18 C 24.528 47.98,27.946 47.145,35.673 47.051 C 38.723 47.014,40.722 46.259,43.098 44.25 C 46.882 41.05,56.685 37.959,59.185 39.179 C 60.111 39.63,61.941 39.593,63.251 39.095 C 64.562 38.596,66.729 38.163,68.067 38.133 C 69.405 38.102,72.075 37.799,74.0 37.46 C 76.745 36.977,78.291 37.381,81.169 39.337 C 83.186 40.708,85.112 41.555,85.448 41.219 C 86.734 39.933,88.706 40.299,89.784 42.026 C 90.519 43.203,90.637 45.531,90.126 48.763 C 89.097 55.276,89.944 57.175,95.414 60.619 C 99.666 63.297,100.167 64.073,102.518 71.63 C 104.819 79.023,108.518 85.0,110.794 85.0 C 111.283 85.0,112.223 83.199,112.882 80.998 C 113.97 77.369,121.706 68.373,122.799 69.466 C 123.037 69.703,124.666 68.376,126.419 66.517 C 132.057 60.539,138.087 60.815,141.999 67.23 C 143.095 69.028,143.994 69.998,143.996 69.385 C 143.998 68.772,142.988 66.983,141.75 65.41 C 140.065 63.268,139.481 61.162,139.425 57.025 C 139.384 53.986,138.709 49.751,137.925 47.614 C 137.141 45.477,136.607 43.567,136.737 43.37 C 137.18 42.701,133.506 35.505,132.194 34.473 C 131.476 33.907,131.17 33.164,131.513 32.82 C 132.122 32.211,130.513 28.905,128.5 26.63 C 127.95 26.009,127.455 24.938,127.4 24.25 C 127.152 21.155,126.909 20.894,124.875 21.54 C 123.647 21.93,122.993 21.82,123.327 21.281 C 124.161 19.93,122.936 15.922,121.886 16.57 C 121.399 16.872,121.0 16.667,121.0 16.116 C 121.0 14.975,115.498 11.5,113.692 11.5 C 113.036 11.5,112.0 10.861,111.388 10.079 C 109.991 8.292,107.005 7.79,106.985 9.338 C 106.976 10.006,106.574 9.874,106.039 9.029 C 105.527 8.22,104.791 7.875,104.403 8.263 C 104.015 8.651,103.149 8.219,102.479 7.302 C 101.809 6.386,99.976 5.464,98.405 5.254 C 96.835 5.043,95.087 4.487,94.52 4.017 C 93.417 3.101,73.756 3.415,72.207 4.372 C 71.697 4.688,70.99 4.657,70.638 4.304 C 69.48 3.147,58.817 3.458,55.773 4.738 M29.5 60.474 C 27.3 61.829,25.95 62.937,26.5 62.937 C 27.05 62.937,28.393 62.261,29.485 61.436 C 30.577 60.61,32.827 59.54,34.485 59.058 C 36.529 58.463,36.856 58.153,35.5 58.095 C 34.4 58.049,31.7 59.119,29.5 60.474 M46.805 58.529 C 46.514 58.819,44.302 59.482,41.888 60.001 L 37.5 60.945 42.0 60.38 C 44.475 60.069,48.75 59.47,51.5 59.048 L 56.5 58.282 51.917 58.141 C 49.396 58.063,47.095 58.238,46.805 58.529 M33.818 61.868 C 30.086 62.747,29.218 63.913,32.876 63.134 C 34.513 62.785,36.186 62.162,36.593 61.75 C 37.0 61.338,37.146 61.053,36.917 61.118 C 36.688 61.183,35.293 61.521,33.818 61.868 M41.703 62.719 C 38.514 63.555,36.055 64.388,36.238 64.572 C 36.869 65.203,49.0 62.541,49.0 61.771 C 49.0 60.823,48.864 60.841,41.703 62.719 M32.328 65.704 C 33.334 65.964,34.421 65.912,34.745 65.588 C 35.069 65.265,34.246 65.052,32.917 65.116 C 31.095 65.203,30.95 65.348,32.328 65.704 M128.451 68.75 C 124.53 72.785,121.092 78.097,124.515 74.832 C 125.477 73.915,126.992 73.437,127.882 73.769 C 129.261 74.285,129.306 74.135,128.183 72.754 C 127.057 71.368,127.217 70.904,129.29 69.546 C 131.364 68.187,132.271 68.141,135.579 69.229 C 137.813 69.963,140.018 71.555,140.803 73.0 C 142.126 75.436,142.146 75.41,141.577 72.0 C 140.91 67.996,137.854 65.0,134.437 65.0 C 133.047 65.0,130.616 66.522,128.451 68.75 M43.245 67.25 C 41.599 69.308,40.988 72.408,41.932 73.912 C 42.678 75.101,43.09 75.053,44.538 73.605 C 45.553 72.59,46.922 72.159,47.879 72.555 C 53.3 74.794,70.477 77.951,79.745 78.411 C 83.447 78.595,83.811 76.702,80.643 73.743 C 78.71 71.938,70.115 69.07,64.606 68.392 C 62.898 68.182,59.25 67.557,56.499 67.005 C 49.723 65.643,44.452 65.741,43.245 67.25 M37.601 71.0 C 36.551 75.068,37.047 77.962,38.143 74.158 C 38.672 72.319,38.912 70.294,38.676 69.658 C 38.44 69.021,37.956 69.625,37.601 71.0 M35.079 71.417 C 35.036 72.471,35.272 73.061,35.604 72.729 C 35.936 72.397,35.972 71.534,35.683 70.812 C 35.364 70.015,35.127 70.252,35.079 71.417 M24.359 73.543 C 22.805 74.983,21.076 76.463,20.517 76.831 C 19.463 77.525,17.838 80.112,14.859 85.843 C 13.638 88.191,13.379 89.865,13.987 91.467 C 14.464 92.721,14.999 94.591,15.177 95.623 C 15.355 96.655,16.131 98.286,16.901 99.246 C 17.992 100.605,18.168 103.198,17.697 110.94 L 17.09 120.888 22.636 132.194 C 28.448 144.045,32.766 150.733,39.061 157.637 C 41.635 160.461,43.389 163.753,44.582 168.007 C 45.544 171.435,47.436 175.553,48.787 177.159 L 51.243 180.078 48.796 184.789 C 43.868 194.275,41.048 197.998,38.737 198.07 C 37.507 198.109,35.6 198.538,34.5 199.024 C 33.022 199.677,33.674 199.854,37.0 199.704 C 41.17 199.515,41.705 199.17,44.3 195.0 C 45.84 192.525,48.295 188.14,49.756 185.255 L 52.411 180.011 57.119 187.255 C 59.708 191.24,63.018 195.85,64.474 197.5 C 65.93 199.15,64.914 197.125,62.215 193.0 C 59.517 188.875,56.778 184.496,56.13 183.269 L 54.95 181.038 58.518 183.143 C 60.48 184.301,62.321 185.012,62.609 184.724 C 63.146 184.187,61.71 183.025,59.018 181.82 C 58.183 181.446,59.833 181.109,62.685 181.07 C 65.537 181.032,68.994 180.573,70.368 180.05 C 72.147 179.374,72.982 179.446,73.267 180.3 C 73.734 181.698,81.528 176.673,82.394 174.416 C 83.252 172.18,81.854 172.749,78.5 176.0 C 76.798 177.65,75.108 179.0,74.745 179.0 C 74.382 179.0,76.323 176.907,79.058 174.349 C 81.793 171.791,83.819 169.486,83.56 169.227 C 83.301 168.968,84.117 166.674,85.372 164.128 C 89.68 155.393,95.0 133.093,95.0 123.768 C 95.0 118.683,94.041 115.56,91.539 112.5 C 90.162 110.816,90.181 111.053,91.663 114.0 C 93.867 118.383,93.938 131.087,91.803 139.005 C 90.987 142.027,89.82 146.562,89.209 149.082 C 87.55 155.922,84.159 164.529,82.083 167.167 C 81.074 168.45,80.16 169.95,80.053 170.5 C 79.658 172.519,76.394 175.338,72.356 177.145 C 66.689 179.681,53.42 179.702,50.402 177.18 C 49.249 176.215,47.308 172.43,46.089 168.767 C 44.87 165.104,41.762 158.596,39.183 154.304 C 36.603 150.012,34.494 146.144,34.496 145.709 C 34.498 145.273,32.415 142.553,29.867 139.663 C 27.32 136.773,23.832 131.629,22.117 128.233 C 19.526 123.099,19.0 120.893,19.0 115.163 C 19.0 109.602,19.425 107.712,21.2 105.385 C 23.259 102.684,23.267 102.615,21.325 104.292 C 19.299 106.041,19.25 106.023,19.25 103.542 C 19.25 102.144,19.67 101.0,20.184 101.0 C 20.698 101.0,20.821 101.48,20.459 102.067 C 20.096 102.654,20.407 103.05,21.15 102.948 C 24.802 102.447,25.327 102.979,23.405 105.233 C 22.357 106.461,22.175 106.952,23.0 106.325 C 23.825 105.697,27.2 104.277,30.5 103.17 C 36.298 101.223,36.421 101.22,34.139 103.078 C 32.841 104.135,32.141 105.0,32.584 105.0 C 33.028 105.0,34.69 103.762,36.279 102.25 L 39.167 99.5 38.595 103.5 C 38.058 107.256,38.083 107.308,39.012 104.36 C 39.555 102.634,40.0 100.267,40.0 99.102 C 40.0 97.353,39.694 97.165,38.25 98.027 C 37.288 98.601,35.686 99.055,34.691 99.035 C 33.696 99.016,33.09 99.338,33.345 99.75 C 33.6 100.162,31.264 100.5,28.154 100.5 C 23.795 100.5,22.5 100.156,22.5 99.0 C 22.5 97.089,28.196 95.129,33.961 95.056 L 38.423 95.0 34.5 93.0 C 32.342 91.9,29.975 91.0,29.239 91.0 C 26.583 91.0,22.085 94.05,20.806 96.719 C 19.138 100.199,17.586 100.247,17.191 96.83 C 16.788 93.342,18.438 90.549,24.35 84.711 C 28.078 81.029,29.506 80.175,30.521 81.018 C 31.556 81.876,31.732 81.692,31.334 80.17 C 31.055 79.101,31.315 77.923,31.913 77.554 C 34.235 76.119,32.741 72.656,29.343 71.597 C 27.786 71.111,26.398 71.653,24.359 73.543 M144.318 77.0 C 144.328 80.575,144.514 81.795,144.731 79.711 C 144.948 77.627,144.94 74.702,144.713 73.211 C 144.485 71.72,144.308 73.425,144.318 77.0 M138.0 73.319 C 138.0 73.559,138.689 75.406,139.532 77.423 C 141.58 82.325,141.65 86.99,139.732 90.834 C 138.033 94.242,139.22 95.326,141.003 91.994 C 142.446 89.298,143.535 75.969,142.15 77.948 C 141.335 79.114,141.005 78.868,140.458 76.688 C 139.894 74.441,138.0 71.845,138.0 73.319 M34.094 77.0 C 34.059 78.375,34.487 80.175,35.046 81.0 C 35.793 82.104,35.898 81.709,35.443 79.5 C 34.492 74.884,34.164 74.275,34.094 77.0 M85.086 79.077 C 83.247 80.607,82.486 80.787,81.894 79.829 C 81.321 78.901,80.087 79.399,77.19 81.727 C 73.268 84.879,73.256 84.881,68.472 83.442 C 62.138 81.535,57.562 81.616,55.872 83.664 C 54.632 85.168,54.71 85.216,56.684 84.164 C 57.886 83.524,59.911 83.052,61.184 83.116 C 63.225 83.218,63.263 83.289,61.5 83.713 C 59.475 84.201,53.719 89.052,54.38 89.714 C 54.578 89.912,57.091 89.147,59.964 88.014 C 63.36 86.676,67.168 86.01,70.844 86.112 C 73.955 86.199,77.625 85.757,79.0 85.13 C 81.324 84.07,81.253 84.028,78.0 84.528 L 74.5 85.065 77.327 83.46 C 78.882 82.578,81.111 81.671,82.281 81.446 C 83.451 81.221,85.316 80.128,86.426 79.018 C 89.011 76.434,88.218 76.468,85.086 79.077 M126.173 79.53 C 126.364 81.131,127.541 82.926,129.0 83.841 L 131.5 85.409 129.0 82.58 L 126.5 79.752 129.0 80.428 C 131.442 81.088,131.453 81.066,129.5 79.481 C 126.08 76.707,125.837 76.71,126.173 79.53 M83.328 83.704 C 84.334 83.964,85.421 83.912,85.745 83.588 C 86.069 83.265,85.246 83.052,83.917 83.116 C 82.095 83.203,81.95 83.348,83.328 83.704 M138.079 84.417 C 138.036 85.471,138.272 86.061,138.604 85.729 C 138.936 85.397,138.972 84.534,138.683 83.812 C 138.364 83.015,138.127 83.252,138.079 84.417 M27.011 84.855 C 27.017 85.21,29.34 86.4,32.174 87.5 C 37.168 89.439,38.044 90.267,39.583 94.5 C 40.227 96.273,40.357 96.303,40.726 94.762 C 41.445 91.761,40.011 89.154,36.698 87.437 C 32.982 85.512,26.995 83.916,27.011 84.855 M123.0 84.537 C 123.0 84.917,123.949 86.916,125.109 88.98 C 126.67 91.758,127.035 93.564,126.514 95.938 C 126.126 97.701,126.075 99.408,126.399 99.732 C 127.142 100.475,130.652 97.35,131.47 95.217 C 132.01 93.811,131.854 93.822,130.214 95.306 C 127.604 97.668,127.346 97.477,127.808 93.521 C 128.119 90.854,127.606 89.32,125.607 86.945 C 124.173 85.241,123.0 84.157,123.0 84.537 M46.622 87.75 C 47.563 91.676,48.0 91.808,48.0 88.167 C 48.0 86.425,47.541 85.0,46.981 85.0 C 46.376 85.0,46.23 86.117,46.622 87.75 M86.341 85.725 C 87.904 85.959,89.442 85.892,89.758 85.575 C 90.074 85.259,88.796 85.067,86.917 85.15 C 83.756 85.288,83.713 85.331,86.341 85.725 M69.5 90.066 C 64.026 93.812,61.899 94.26,57.522 92.588 L 53.5 91.052 55.861 93.026 C 59.024 95.671,63.623 95.516,67.946 92.618 C 69.901 91.308,72.4 89.747,73.5 89.148 C 74.887 88.394,75.04 88.054,74.0 88.037 C 73.175 88.024,71.15 88.937,69.5 90.066 M78.35 90.734 C 80.468 90.953,82.455 90.878,82.767 90.566 C 83.078 90.255,81.346 90.076,78.917 90.168 L 74.5 90.336 78.35 90.734 M142.564 97.707 C 142.022 99.132,142.136 99.247,143.124 98.267 C 143.808 97.588,144.115 96.781,143.807 96.474 C 143.499 96.166,142.94 96.721,142.564 97.707 M65.338 100.601 C 66.9 101.457,68.392 101.941,68.655 101.678 C 69.328 101.006,66.882 99.607,64.5 99.302 C 63.029 99.113,63.251 99.457,65.338 100.601 M139.628 102.752 C 137.66 106.559,135.059 108.659,131.334 109.45 C 128.868 109.973,127.935 109.722,127.114 108.311 C 126.288 106.89,126.054 107.751,126.03 112.309 C 126.011 115.934,126.376 117.886,127.0 117.5 C 127.55 117.16,128.0 116.024,128.0 114.976 C 128.0 113.196,130.662 111.0,132.821 111.0 C 133.4 111.0,133.604 116.776,133.342 125.75 C 132.95 139.206,133.171 141.728,135.86 154.5 C 138.561 167.329,144.641 186.693,145.65 185.683 C 145.883 185.45,145.169 182.966,144.064 180.161 C 142.958 177.357,141.759 173.811,141.4 172.281 C 140.757 169.546,140.818 169.567,145.123 173.555 C 147.53 175.786,150.4 178.201,151.5 178.923 C 152.6 179.644,150.459 177.369,146.742 173.867 L 139.984 167.5 137.377 154.5 C 133.851 136.918,133.818 127.307,137.238 114.257 C 138.714 108.624,140.405 103.111,140.996 102.007 C 141.587 100.903,141.841 100.0,141.561 100.0 C 141.281 100.0,140.411 101.239,139.628 102.752 M65.0 105.933 C 65.0 106.446,65.892 107.148,66.982 107.494 C 69.837 108.401,80.856 119.703,82.469 123.38 L 83.837 126.5 83.918 123.728 C 84.012 120.536,79.06 114.692,71.226 108.75 C 66.089 104.854,65.0 104.361,65.0 105.933 M59.083 108.34 C 60.734 109.685,62.222 110.168,61.595 109.155 C 61.203 108.52,60.384 108.0,59.774 108.0 C 59.165 108.0,58.854 108.153,59.083 108.34 M62.116 112.628 C 61.949 115.69,59.875 117.0,55.195 117.0 C 50.016 117.0,45.733 118.861,46.472 120.789 C 46.914 121.94,46.282 122.096,43.261 121.581 C 41.192 121.229,38.449 120.806,37.164 120.641 C 35.879 120.475,34.424 119.701,33.929 118.92 C 33.435 118.139,33.024 117.976,33.015 118.559 C 32.973 121.462,35.803 123.235,40.918 123.511 C 45.143 123.739,47.631 123.143,53.368 120.528 C 61.235 116.944,63.407 115.027,62.699 112.298 C 62.313 110.811,62.212 110.868,62.116 112.628 M27.459 120.067 C 27.096 120.653,27.014 121.348,27.276 121.61 C 27.538 121.872,28.019 121.392,28.345 120.543 C 29.021 118.781,28.445 118.471,27.459 120.067 M85.744 122.5 C 87.284 128.614,86.333 144.184,84.095 149.5 C 82.819 152.529,82.575 153.746,83.474 152.587 C 87.984 146.776,89.72 129.219,86.449 122.5 L 84.989 119.5 85.744 122.5 M29.203 123.256 C 25.497 127.721,27.422 134.381,34.904 142.983 C 40.166 149.033,44.528 156.862,45.914 162.746 C 46.686 166.021,46.812 166.145,46.9 163.721 C 47.02 160.397,41.855 149.777,37.935 145.29 C 31.08 137.442,27.652 128.387,29.927 124.137 C 31.193 121.771,30.816 121.312,29.203 123.256 M127.789 131.78 C 128.124 138.598,127.895 142.935,127.11 144.659 C 126.458 146.089,126.154 147.488,126.435 147.768 C 126.715 148.048,127.438 146.979,128.041 145.392 C 129.357 141.93,129.435 131.056,128.184 125.5 C 127.537 122.626,127.426 124.393,127.789 131.78 M56.506 125.919 C 55.409 126.347,58.332 126.534,63.006 126.333 L 71.5 125.968 64.5 127.978 C 54.21 130.932,44.901 132.963,41.559 132.983 C 38.759 132.999,38.711 132.929,40.559 131.532 C 41.626 130.724,43.85 130.029,45.5 129.987 C 47.15 129.944,49.85 129.25,51.5 128.444 C 54.004 127.221,54.086 127.081,52.0 127.602 C 50.625 127.944,47.978 128.356,46.118 128.516 C 40.974 128.959,37.54 132.009,37.292 136.356 C 37.126 139.269,37.444 140.0,38.875 140.0 C 39.86 140.0,42.112 141.8,43.88 144.0 C 47.489 148.491,49.93 148.987,53.727 146.0 C 55.126 144.9,57.222 143.968,58.385 143.93 C 60.448 143.861,60.451 143.84,58.5 143.044 C 56.66 142.294,56.72 142.171,59.248 141.507 C 60.759 141.109,62.705 141.057,63.572 141.389 C 64.439 141.722,65.822 141.321,66.646 140.497 C 67.469 139.674,69.897 139.0,72.04 139.0 C 75.307 139.0,75.843 139.283,75.355 140.75 C 74.519 143.261,79.701 137.048,81.225 133.711 L 82.5 130.921 83.705 133.711 L 84.91 136.5 84.955 133.885 C 85.002 131.139,81.624 126.0,79.772 126.0 C 79.177 126.0,79.515 126.912,80.524 128.027 C 82.189 129.866,81.848 129.82,76.839 127.527 C 71.181 124.936,61.071 124.137,56.506 125.919 M77.505 130.015 C 77.856 131.123,78.562 131.771,79.072 131.456 C 79.582 131.14,80.0 131.314,80.0 131.842 C 80.0 132.869,69.009 135.103,67.742 134.333 C 67.326 134.08,66.277 134.58,65.412 135.445 C 64.547 136.311,63.454 136.781,62.984 136.49 C 62.514 136.199,60.608 136.816,58.748 137.861 C 56.888 138.905,53.268 140.208,50.702 140.755 C 45.55 141.853,44.727 141.388,43.619 136.75 C 43.053 134.381,43.268 134.0,45.172 134.0 C 46.387 134.0,47.739 134.562,48.176 135.25 C 48.769 136.184,48.973 136.196,48.985 135.297 C 49.005 133.708,56.365 131.619,56.851 133.063 C 57.06 133.686,57.665 133.535,58.351 132.691 C 59.798 130.909,60.889 130.317,64.299 129.461 C 66.651 128.871,66.936 129.032,66.388 130.639 C 65.899 132.073,66.139 131.984,67.434 130.25 C 69.724 127.182,76.555 127.022,77.505 130.015 M70.0 130.0 C 70.0 130.55,70.45 131.0,71.0 131.0 C 71.55 131.0,72.0 130.55,72.0 130.0 C 72.0 129.45,71.55 129.0,71.0 129.0 C 70.45 129.0,70.0 129.45,70.0 130.0 M74.0 130.0 C 74.0 130.55,74.45 131.0,75.0 131.0 C 75.55 131.0,76.0 130.55,76.0 130.0 C 76.0 129.45,75.55 129.0,75.0 129.0 C 74.45 129.0,74.0 129.45,74.0 130.0 M96.578 134.217 C 95.67 141.185,92.245 154.572,90.384 158.429 C 89.025 161.247,89.033 161.337,90.476 159.525 C 93.313 155.964,99.369 131.035,97.783 129.449 C 97.499 129.165,96.957 131.311,96.578 134.217 M30.752 143.196 C 31.64 144.678,32.847 145.619,33.433 145.285 C 34.02 144.952,34.176 145.038,33.78 145.477 C 33.383 145.915,33.882 147.45,34.888 148.887 C 35.894 150.324,37.255 152.625,37.913 154.0 C 39.362 157.025,38.384 155.945,32.879 148.438 C 28.983 143.124,24.425 134.672,27.52 138.5 C 28.41 139.6,29.864 141.713,30.752 143.196 M43.799 148.582 C 44.941 150.76,47.871 153.569,48.294 152.893 C 48.429 152.677,47.227 151.15,45.624 149.5 C 43.641 147.461,43.057 147.167,43.799 148.582 M68.0 149.0 C 67.099 149.582,66.975 149.975,67.691 149.985 C 68.346 149.993,69.16 149.55,69.5 149.0 C 70.267 147.758,69.921 147.758,68.0 149.0 M58.328 152.704 C 59.334 152.964,60.421 152.912,60.745 152.588 C 61.069 152.265,60.246 152.052,58.917 152.116 C 57.095 152.203,56.95 152.348,58.328 152.704 M111.573 162.865 C 106.341 168.841,100.882 174.502,99.443 175.445 C 98.004 176.388,97.078 177.412,97.386 177.719 C 98.83 179.164,112.673 165.206,120.166 154.75 C 124.208 149.109,120.798 152.33,111.573 162.865 M51.269 153.693 C 52.242 153.947,53.592 153.93,54.269 153.656 C 54.946 153.382,54.15 153.175,52.5 153.195 C 50.85 153.215,50.296 153.439,51.269 153.693 M63.0 155.066 C 61.075 155.539,57.7 155.978,55.5 156.042 C 51.569 156.156,51.549 156.176,54.313 157.183 C 57.576 158.373,64.394 157.528,68.0 155.486 C 70.177 154.254,70.241 154.08,68.5 154.138 C 67.4 154.175,64.925 154.592,63.0 155.066 M82.5 170.0 C 82.16 170.55,81.432 171.0,80.882 171.0 C 80.332 171.0,80.16 170.55,80.5 170.0 C 80.84 169.45,81.568 169.0,82.118 169.0 C 82.668 169.0,82.84 169.45,82.5 170.0 " stroke="none" fill="black" fill-rule="evenodd"/></svg>